<svg width="255" height="192" viewBox="0 0 255 192" fill="none" xmlns="http://www.w3.org/2000/svg">
<path d="M130.869 185.957L240.734 121.029C244.23 119.067 247.23 115.838 243.823 113.73L133.556 50.1841C131.901 49.1588 129.391 48.4901 127.71 49.4645L12.3933 116.38C8.89693 118.411 8.26643 124.086 11.7565 126.117L116.387 185.855C118.584 187.129 121.075 187.809 123.614 187.827C126.154 187.845 128.654 187.2 130.869 185.957Z" fill="#735F4E"/>
<path opacity="0.32" d="M49.4906 116.762C57.8717 121.646 63.8582 124.933 76.7483 132.288C66.9916 138.218 58.4639 142.567 57.3685 143.217L29.3466 127.295C31.6202 126.13 39.0588 121.92 49.4906 116.762Z" fill="url(#paint0_linear_37_1808)"/>
<path opacity="0.32" d="M158.579 130.69C168.679 136.581 175.895 140.536 191.428 149.401C179.672 156.547 169.393 161.794 168.068 162.571L134.314 143.408C137.021 141.982 145.982 136.906 158.579 130.69Z" fill="url(#paint1_linear_37_1808)"/>
<path opacity="0.32" d="M220.183 123.99C214.941 120.5 209.611 117.137 204.312 113.743L211.84 108.247L240.995 120.411C237.474 122.258 232.716 125.716 227.71 129.238C225.22 127.461 222.73 125.684 220.183 123.99Z" fill="url(#paint2_linear_37_1808)"/>
<path d="M201.452 94.255C201.496 94.0749 201.576 93.9057 201.688 93.7582C201.894 93.5078 202.139 93.2927 202.414 93.1214C206.114 90.6185 211.241 89.9371 215.151 92.3763C216.043 92.9367 217.374 94.2041 216.845 95.4014C216.54 96.0955 215.61 96.5031 214.935 96.7833C212.788 97.6412 210.545 98.2337 208.254 98.5475C207.426 98.6876 206.586 98.8277 205.751 98.9041C205.174 98.9597 204.592 98.8692 204.059 98.6411C203.526 98.413 203.059 98.0544 202.701 97.5985C202.121 96.8407 201.191 95.3631 201.452 94.255Z" fill="#754C24"/>
<path d="M216.954 94.8536C216.954 94.8536 213.578 97.9106 207.745 97.4648C201.911 97.019 201.459 94.2805 201.459 94.2805C201.459 94.2805 202.968 113.616 203.764 113.947C204.56 114.278 207.541 115.717 208.98 115.826C210.419 115.934 214.967 114.112 215.081 113.609C215.196 113.106 216.954 94.8536 216.954 94.8536Z" fill="#FF8F6F"/>
<path d="M215.897 66.7043C216.075 66.3413 216.629 66.6597 216.444 67.0227C212.451 75.0727 211.674 84.1352 210.954 92.9367C210.923 93.3379 210.286 93.3443 210.318 92.9367C211.037 83.9888 211.84 74.8307 215.897 66.7043Z" fill="#007F68"/>
<path d="M216.4 66.7552C216.4 66.7552 215.285 70.9331 216.438 73.022C217.591 75.1109 218.54 75.5249 217.164 78.1169C215.788 80.7089 212.107 81.0592 211.865 83.0462C211.623 85.0332 213.623 70.3026 216.4 66.7552Z" fill="#007F68"/>
<path d="M203.63 74.2957C206.706 80.7272 208.439 87.7176 208.725 94.8409C208.725 95.3376 207.967 95.3313 207.948 94.8409C207.678 87.8531 205.991 80.9931 202.987 74.6778C202.745 74.2384 203.414 73.8435 203.63 74.2957Z" fill="#007F68"/>
<path d="M203.083 76.3273C203.083 75.907 203.178 75.0536 203.134 74.3467L203.58 74.6269C205.095 78.3143 207.363 86.9757 208.038 89.625C207.114 87.638 203.338 87.3641 202.229 84.5301C201.74 83.3272 201.718 81.9851 202.166 80.7663C202.712 79.3468 203.022 77.8472 203.083 76.3273Z" fill="#007F68"/>
<path opacity="0.32" d="M118.081 148.299C107.815 142.771 83.5183 130.55 73.3285 124.894L131.971 88.2048L174.284 116.934C163.546 122.551 132.939 139.109 118.081 148.299Z" fill="url(#paint3_linear_37_1808)"/>
<path d="M167.571 86.4471C167.527 100.031 167.45 112.259 167.45 112.259C167.45 112.259 167.164 113.367 165.119 112.463V85.6319C165.935 85.9057 166.75 86.1669 167.571 86.4471Z" fill="#5B434D"/>
<path d="M110.77 119.462C110.725 133.046 110.649 145.274 110.649 145.274C110.649 145.274 110.362 146.382 108.318 145.478V118.672C109.133 118.927 109.948 119.207 110.77 119.462Z" fill="#5B434D"/>
<path d="M75.7866 98.8786C75.742 112.463 75.6656 124.691 75.6656 124.691C75.6656 124.691 75.379 125.799 73.3347 124.894V98.0889C74.1435 98.3563 74.9587 98.6238 75.7866 98.8786Z" fill="#5B434D"/>
<path d="M168.049 85.6319V87.9437L109.432 121.857L73.3858 98.1845L73.3285 95.5988" fill="#A5DD73"/>
<path opacity="0.76" d="M168.049 85.6319V87.9437L109.432 121.857L73.3858 98.1845L73.3285 95.5988" fill="#31716A"/>
<path d="M168.049 85.6319L130.334 64.1187L73.3285 95.5988L109.636 119.538L168.049 85.6319Z" fill="#59A8A0"/>
<path d="M115.712 74.4359L123.653 78.257C123.953 78.4007 124.208 78.6234 124.39 78.9011C124.573 79.1788 124.676 79.501 124.689 79.8331C124.703 80.1652 124.625 80.4946 124.465 80.7858C124.305 81.077 124.068 81.3191 123.781 81.4859L104.949 92.4718C104.542 92.7089 104.059 92.7797 103.601 92.6694C103.143 92.559 102.745 92.276 102.49 91.8795L97.9178 84.7658" fill="#56403D"/>
<path d="M75.7866 54.0753L140.664 16.7106C140.985 16.5199 141.351 16.4179 141.725 16.4152C142.098 16.4124 142.466 16.5089 142.79 16.6949C143.113 16.8808 143.382 17.1495 143.568 17.4734C143.754 17.7974 143.851 18.1649 143.848 18.5384V58.2341C143.847 58.5195 143.772 58.7997 143.629 59.0467C143.485 59.2937 143.28 59.4988 143.033 59.6415L74.0034 99.49C73.884 99.5597 73.7483 99.5965 73.61 99.5968C73.4718 99.5971 73.3359 99.5608 73.2163 99.4916C73.0966 99.4224 72.9974 99.3227 72.9287 99.2028C72.86 99.0828 72.8243 98.9468 72.8252 98.8086V59.2721C72.821 58.2226 73.0924 57.1903 73.612 56.2783C74.1317 55.3664 74.8815 54.6068 75.7866 54.0753Z" fill="#68E1FD"/>
<path d="M139.537 20.2134L78.105 55.5592C77.4488 55.9366 76.9037 56.4803 76.5246 57.1355C76.1456 57.7907 75.946 58.5343 75.946 59.2913V87.759C75.9452 88.0322 76.0165 88.3007 76.1526 88.5375C76.2886 88.7744 76.4847 88.9712 76.7211 89.1081C76.9574 89.245 77.2257 89.3172 77.4988 89.3174C77.772 89.3175 78.0404 89.2457 78.2769 89.1092L140.925 53.1646C141.159 53.0302 141.354 52.8363 141.489 52.6026C141.624 52.3689 141.696 52.1036 141.696 51.8336V21.4871C141.699 21.2329 141.634 20.9824 141.51 20.7609C141.385 20.5394 141.204 20.3548 140.985 20.2256C140.766 20.0964 140.517 20.0273 140.262 20.0251C140.008 20.023 139.758 20.0879 139.537 20.2134Z" fill="#200A52"/>
<path d="M113.034 73.7962C112.671 73.7263 112.378 73.6669 112.379 73.6635C112.379 73.66 112.674 73.7138 113.036 73.7836C113.399 73.8535 113.693 73.9129 113.692 73.9164C113.691 73.9198 113.397 73.866 113.034 73.7962Z" fill="#AB643C"/>
<path d="M80.6077 57.1705C80.2384 57.1705 79.9389 56.8454 79.9389 56.4445C79.9389 56.0435 80.2384 55.7184 80.6077 55.7184C80.977 55.7184 81.2764 56.0435 81.2764 56.4445C81.2764 56.8454 80.977 57.1705 80.6077 57.1705Z" fill="#659FE4"/>
<path d="M82.7412 56.1069C82.3719 56.1069 82.0725 55.7818 82.0725 55.3809C82.0725 54.9799 82.3719 54.6548 82.7412 54.6548C83.1105 54.6548 83.4099 54.9799 83.4099 55.3809C83.4099 55.7818 83.1105 56.1069 82.7412 56.1069Z" fill="#C5E9FF"/>
<path d="M138.25 28.0786L100.58 49.4836" stroke="#00A99D" stroke-width="4.06" stroke-miterlimit="10"/>
<path d="M138.116 33.6766L132.015 37.1412" stroke="#D4145A" stroke-width="4.06" stroke-miterlimit="10"/>
<path d="M130.213 38.313L96.3063 56.954" stroke="#29ABE2" stroke-width="4.06" stroke-miterlimit="10"/>
<path d="M138.25 38.7842L125.233 45.9617" stroke="#F7931E" stroke-width="4.06" stroke-miterlimit="10"/>
<path d="M123.074 47.3246L94.5232 62.5966" stroke="#00A99D" stroke-width="4.06" stroke-miterlimit="10"/>
<path d="M53.127 51.8272V79.2123C53.1259 79.7524 53.2682 80.2831 53.5393 80.7502C53.8105 81.2173 54.2008 81.604 54.6704 81.8709C55.1399 82.1377 55.6719 82.2751 56.212 82.269C56.7521 82.2629 57.2808 82.1136 57.7443 81.8362L83.7983 66.2967C84.2529 66.0261 84.6293 65.642 84.8906 65.182C85.1519 64.7219 85.289 64.2019 85.2886 63.6729V36.7718C85.2891 36.2357 85.1483 35.709 84.8805 35.2447C84.6127 34.7803 84.2272 34.3947 83.763 34.1268C83.2987 33.8588 82.772 33.7179 82.236 33.7183C81.6999 33.7186 81.1734 33.8602 80.7095 34.1288L54.6555 49.1715C54.1891 49.44 53.802 49.8271 53.5336 50.2935C53.2652 50.7599 53.1249 51.2891 53.127 51.8272Z" fill="#5CAEBF"/>
<path d="M71.7234 48.7321L80.1682 54.9415L72.5959 65.5707" stroke="#006837" stroke-width="4.06" stroke-miterlimit="10"/>
<path d="M64.2532 53.2156L58.0374 65.3542L66.7751 69.4301" stroke="#006837" stroke-width="4.06" stroke-miterlimit="10"/>
<path d="M137.709 78.308L151.395 86.1286C151.538 86.2115 151.656 86.3304 151.739 86.4735C151.821 86.6165 151.865 86.7787 151.865 86.9438C151.865 87.1089 151.821 87.2711 151.739 87.4141C151.656 87.5572 151.538 87.6761 151.395 87.759L113.362 109.622C112.901 109.888 112.378 110.028 111.846 110.028C111.314 110.028 110.791 109.888 110.33 109.622L97.5229 102.229C97.3734 102.143 97.2492 102.019 97.1629 101.869C97.0765 101.72 97.0311 101.551 97.0311 101.378C97.0311 101.206 97.0765 101.036 97.1629 100.887C97.2492 100.738 97.3734 100.614 97.5229 100.528L135.989 78.308C136.25 78.1551 136.547 78.0746 136.849 78.0746C137.151 78.0746 137.448 78.1551 137.709 78.308Z" fill="#200A52"/>
<path d="M117.03 90.7777L120.934 93.0959L118.036 94.7772L114.113 92.4718L117.03 90.7777Z" fill="white"/>
<path d="M121.31 88.2876L125.214 90.6058L121.539 92.7393L117.616 90.4338L121.31 88.2876Z" fill="white"/>
<path d="M136.862 79.2569L140.83 81.5369L137.301 83.5876L133.378 81.2821L136.862 79.2569Z" fill="white"/>
<path d="M128.5 84.1161L132.404 86.4471L129.506 88.1284L125.583 85.8229L128.5 84.1161Z" fill="white"/>
<path d="M132.78 81.626L136.684 83.9442L133.015 86.0776C132.582 85.8293 130.124 84.3772 129.092 83.7722L132.78 81.626Z" fill="white"/>
<path d="M113.521 92.8157L117.425 95.1339L114.648 96.7451L110.731 94.4397L113.521 92.8157Z" fill="white"/>
<path d="M124.991 86.1541L128.895 88.4723L125.825 90.2555L121.902 87.9501L124.991 86.1541Z" fill="white"/>
<path d="M110.133 94.7772L114.037 97.0954L110.362 99.2289L106.439 96.9234L110.133 94.7772Z" fill="white"/>
<path d="M105.853 97.2673L109.763 99.5791L103.172 103.407L99.204 101.127L105.853 97.2673Z" fill="white"/>
<path d="M141.333 82.2119L145.3 84.4919L140.167 87.4724L136.244 85.167L141.333 82.2119Z" fill="white"/>
<path d="M131.372 87.9946L135.276 90.3128L132.378 91.9941L128.455 89.6887L131.372 87.9946Z" fill="white"/>
<path d="M124.188 92.1788L128.092 94.497L124.418 96.6305L120.495 94.3251L124.188 92.1788Z" fill="white"/>
<path d="M127.863 90.0326L131.767 92.3508L128.697 94.134L124.774 91.8285L127.863 90.0326Z" fill="white"/>
<path d="M119.902 94.6562L123.806 96.9744L120.908 98.6558L116.992 96.3503L119.902 94.6562Z" fill="white"/>
<path d="M116.393 96.6942L120.297 99.0124L117.52 100.624L113.604 98.3182L116.393 96.6942Z" fill="white"/>
<path d="M135.652 85.5109L139.556 87.829L135.887 89.9625L131.964 87.6571L135.652 85.5109Z" fill="white"/>
<path d="M113.011 98.6621L116.915 100.98L113.241 103.114L109.324 100.808L113.011 98.6621Z" fill="white"/>
<path d="M112.635 103.464L107.649 106.362L103.675 104.082L108.732 101.146L112.635 103.464Z" fill="white"/>
<path d="M115.559 103.063L118.463 104.795L115.094 106.744L112.145 105.05L115.559 103.063Z" fill="white"/>
<path d="M114.393 107.151L111.527 108.807L108.572 107.12L111.496 105.426L114.393 107.151Z" fill="white"/>
<path d="M146.23 85.2498L149.274 86.9438L145.822 88.9372L142.835 87.224L146.23 85.2498Z" fill="white"/>
<path d="M142.192 87.5998L145.128 89.3448L141.441 91.4783L138.46 89.7651L142.192 87.5998Z" fill="white"/>
<path d="M137.811 90.1409L140.74 91.8859L119.163 104.387L116.208 102.687L137.811 90.1409Z" fill="white"/>
<path d="M38.4092 129.149C31.7862 129.149 26.4171 126.494 26.4171 123.219C26.4171 119.945 31.7862 117.29 38.4092 117.29C45.0323 117.29 50.4014 119.945 50.4014 123.219C50.4014 126.494 45.0323 129.149 38.4092 129.149Z" fill="#68E1FD"/>
<path d="M26.4108 107.425V123.551C26.4108 123.551 35.3268 131.83 50.4014 123.684V107.425" fill="#68E1FD"/>
<path opacity="0.21" d="M35.7725 123.06C39.0842 125.608 43.0837 126.818 47.1851 127.251C44.452 128.573 41.4443 129.228 38.4091 129.161C32.0405 129.161 26.8373 126.703 26.4552 123.595L26.417 123.563V107.425H26.6399C28.6587 113.195 30.7859 119.188 35.7725 123.06Z" fill="#200A52"/>
<path d="M48.6053 113.195C48.6053 113.195 50.5923 110.157 52.4647 111.922C54.337 113.686 52.7003 119.755 47.2042 120.341V122.748C47.2042 122.748 54.1014 121.812 55.0376 115.615C55.9738 109.419 51.5285 108.463 49.3058 110.17" fill="#68E1FD"/>
<path d="M38.4092 113.418C31.7862 113.418 26.4171 110.764 26.4171 107.489C26.4171 104.214 31.7862 101.56 38.4092 101.56C45.0323 101.56 50.4014 104.214 50.4014 107.489C50.4014 110.764 45.0323 113.418 38.4092 113.418Z" fill="#663535"/>
<path d="M151.274 107.464C154.229 105.4 157.706 104.279 161.464 105.094C165.463 105.973 168.928 108.489 173.004 109.107C173.641 109.202 176.22 109.037 176.615 109.412C187.957 120.15 156.235 118.997 156.235 118.997C153.159 116.45 150.261 113.998 147.204 111.45C148.134 109.412 149.663 108.597 151.274 107.464Z" fill="#F8997C"/>
<path d="M166.221 123.054L167.348 155.445C167.393 156.674 165.482 156.674 165.438 155.445L164.311 123.054C164.247 121.825 166.151 121.831 166.221 123.054Z" fill="#F8997C"/>
<path d="M142.422 140.383C148.196 134.732 153.715 128.835 158.98 122.691C159.782 121.755 161.126 123.111 160.33 124.041C155.074 130.18 149.554 136.078 143.772 141.733C142.893 142.593 141.536 141.217 142.422 140.383Z" fill="#F8997C"/>
<path d="M172.819 120.061C177.303 128.522 181.525 137.114 185.486 145.835C185.989 146.943 184.346 147.917 183.837 146.796C179.875 138.075 175.653 129.484 171.17 121.022C170.596 119.94 172.239 118.972 172.819 120.061Z" fill="#F8997C"/>
<path d="M150.484 85.8102C150.096 85.7147 146.829 84.874 146.026 84.6065C145.224 84.339 142.74 82.4093 141.39 82.6959C140.04 82.9825 137.32 84.7721 137.193 85.3708C137.066 85.9694 137.83 86.6954 138.117 86.9565C138.403 87.2177 140.371 86.498 141.135 86.377C141.899 86.256 143.116 88.0647 143.836 88.3831C144.555 88.7015 149.204 89.5358 149.204 89.5358" fill="#FCBF81"/>
<path d="M141.702 93.7455C141.313 93.65 138.046 92.8093 137.244 92.5418C136.441 92.2743 133.958 90.3446 132.608 90.6312C131.257 90.9178 128.538 92.7074 128.411 93.3061C128.283 93.9047 129.047 94.6307 129.334 94.8918C129.621 95.153 131.589 94.4333 132.353 94.3123C133.117 94.1913 134.333 96 135.053 96.3184C135.773 96.6368 140.422 97.4711 140.422 97.4711" fill="#FCBF81"/>
<path d="M142.969 134.906C142.377 134.269 141.988 133.632 142.192 132.964C142.555 131.773 144.173 131.289 145.281 131.352C146.389 131.416 147.536 131.989 148.656 132.308C149.828 132.728 151.079 132.883 152.318 132.76C152.518 132.73 152.699 132.628 152.828 132.473C153.171 132.397 153.489 132.232 153.749 131.995C154.01 131.759 154.204 131.458 154.312 131.123L157.98 129.811C157.98 129.811 158.916 137.562 158.884 138.09C158.611 142.274 152.363 139.886 152.363 139.886C152.363 139.886 152.14 137.976 152.083 137.74C152.025 137.504 149.631 138.23 148.644 138.078C148.19 137.951 147.759 137.751 147.37 137.485C146.631 137.078 145.905 136.645 145.186 136.212C144.466 135.778 143.714 135.352 142.969 134.906Z" fill="#56403D"/>
<path d="M156.668 106.298C158.044 106.432 159.42 106.61 160.789 106.808C160.22 115.609 159.583 124.404 158.878 133.193C155.312 134.651 153.866 133.976 151.656 131.715C151.236 123.328 150.503 114.52 150.523 106.062C152.561 106.152 154.611 106.241 156.668 106.298Z" fill="#34323D"/>
<path d="M171.488 103.884C171.488 103.884 172.08 113.52 167.24 115.666C162.4 117.813 152.471 116.743 147.587 113.877C145.061 112.339 142.411 111.016 139.664 109.922C139.664 109.922 138.39 105.706 141.454 103.884C144.517 102.063 151.229 99.8084 157.203 103.884" fill="#34323D"/>
<path d="M146.81 89.4594C146.294 87.4915 146.593 84.2435 146.593 84.2435C146.593 84.2435 152.637 85.2752 155.184 84.8804C157.732 84.4855 161.897 79.1486 161.897 79.1486L161.33 89.7205C156.503 90.7332 151.503 90.9497 146.81 89.4594Z" fill="#BA3E00"/>
<path d="M131.793 140.943C131.2 140.307 130.812 139.67 131.016 139.001C131.379 137.81 132.996 137.326 134.104 137.39C135.212 137.453 136.359 138.027 137.48 138.345C138.652 138.766 139.903 138.92 141.142 138.797C141.341 138.768 141.523 138.666 141.651 138.511C141.995 138.434 142.312 138.27 142.573 138.033C142.833 137.796 143.027 137.495 143.135 137.16L146.803 135.849C146.803 135.849 147.74 143.599 147.708 144.128C147.434 148.312 141.186 145.924 141.186 145.924C141.186 145.924 140.963 144.013 140.906 143.777C140.849 143.542 138.454 144.268 137.467 144.115C137.013 143.988 136.583 143.788 136.193 143.523C135.454 143.115 134.728 142.682 134.009 142.249C133.289 141.816 132.531 141.389 131.793 140.943Z" fill="#56403D"/>
<path d="M145.905 104.12C147.179 103.521 148.491 103.585 150.007 103.591C149.796 106.693 149.911 107.807 149.72 110.903L149.669 111.724C149.083 120.895 148.395 130.059 147.695 139.224C144.128 140.682 142.683 140.007 140.473 137.746C139.982 127.983 139.059 117.679 139.416 107.96C141.473 105.922 143.294 105.343 145.905 104.12Z" fill="#34323D"/>
<path d="M171.571 101.891C171.571 102.127 171.526 102.923 171.488 103.884C169.482 106.527 167.03 108.075 163.209 107.96C160.095 107.871 157.477 106.508 155.057 104.827C155.363 99.1907 156.273 89.5422 157.694 82.836C157.815 82.2692 159.286 81.8871 159.719 81.6515C160.731 81.0974 160.139 80.1421 161.133 79.5498C162.574 78.7107 164.074 77.9784 165.623 77.359H165.661C168.138 77.3208 172.411 79.2314 172.666 82.5495C173.055 87.6444 172.494 90.7331 172.099 95.8217C171.953 97.8724 171.743 99.8976 171.571 101.891Z" fill="#E55600"/>
<path d="M162.941 67.6978C162.616 67.7806 159.865 74.111 160.942 77.9577C162.018 81.8043 168.552 77.8494 170.195 74.9198C171.838 71.9903 169.119 66.0674 162.941 67.6978Z" fill="#FCBF81"/>
<path d="M163.037 68.5831C163.037 68.5831 163.037 70.672 164.865 71.347C166.692 72.0221 168.215 72.4743 168.113 73.3213C168.011 74.1683 164.807 73.2003 164.795 75.1364C164.794 76.4405 164.969 77.7388 165.317 78.9958C165.521 79.9447 171.004 77.0342 172.813 72.0794C174.621 67.1246 170.093 65.8063 169.87 65.7745C169.648 65.7427 169.234 64.3925 167.024 63.9085C164.814 63.4245 164.177 64.2906 164.177 64.2906C163.673 63.9867 163.082 63.8564 162.497 63.9196C161.912 63.9829 161.363 64.2362 160.935 64.6409C158.891 66.2649 159.407 69.2327 161.725 70.4363L163.037 68.5831Z" fill="#34323D"/>
<path d="M137.817 92.1788C140.664 92.7711 146.447 93.7137 148.491 92.8157C150.077 92.1215 155.369 80.7726 161.12 79.5562L161.897 88.2175C161.897 88.2175 153.764 98.5347 150.007 99.5983C147.275 100.369 139.919 99.3372 136.69 98.2163C136.55 96.1409 136.938 94.0639 137.817 92.1788Z" fill="#E55600"/>
<path d="M155.834 94.8473C156.248 94.3123 160.961 88.9754 160.961 88.9754L155.299 100.573L155.834 94.8473Z" fill="#34323D"/>
<path d="M147.65 111.285C149.419 113.75 151.926 115.59 154.809 116.539C158.846 117.768 164.718 117.176 166.839 112.966C170.698 105.285 167.075 95.6688 171.151 88.1984C171.621 87.2541 172.286 86.4199 173.101 85.7504C173.917 85.0809 174.865 84.5913 175.882 84.3136C178.525 83.734 180.34 85.721 181.296 88.0583C183.015 92.2489 182.952 97.4648 182.869 101.929C182.865 105.535 182.603 109.136 182.085 112.705C182.085 112.705 179.614 127.678 160.356 123.659C157.02 123.054 153.817 121.869 150.892 120.156C149.393 119.292 148.081 118.138 147.033 116.762C145.842 115.029 146.638 112.998 147.65 111.285Z" fill="#68E1FD"/>
<defs>
<linearGradient id="paint0_linear_37_1808" x1="56.6616" y1="133.129" x2="43.0455" y2="120.557" gradientUnits="userSpaceOnUse">
<stop stop-color="#735F4E"/>
<stop offset="1" stop-color="#502019"/>
</linearGradient>
<linearGradient id="paint1_linear_37_1808" x1="167.196" y1="150.414" x2="150.79" y2="135.269" gradientUnits="userSpaceOnUse">
<stop stop-color="#735F4E"/>
<stop offset="1" stop-color="#502019"/>
</linearGradient>
<linearGradient id="paint2_linear_37_1808" x1="226.214" y1="119.946" x2="211.203" y2="107.846" gradientUnits="userSpaceOnUse">
<stop stop-color="#735F4E"/>
<stop offset="1" stop-color="#502019"/>
</linearGradient>
<linearGradient id="paint3_linear_37_1808" x1="133.786" y1="134.218" x2="115.737" y2="110.151" gradientUnits="userSpaceOnUse">
<stop stop-color="#735F4E"/>
<stop offset="1" stop-color="#502019"/>
</linearGradient>
</defs>
</svg>
