<svg width="254" height="192" viewBox="0 0 254 192" fill="none" xmlns="http://www.w3.org/2000/svg">
<path d="M120.377 185.161L10.16 119.863C6.64841 117.889 3.63851 114.641 7.06116 112.514L117.678 48.5856C119.336 47.5538 121.856 46.8788 123.546 47.8595L239.236 115.201C242.748 117.246 243.376 122.952 239.871 124.996L134.906 185.091C132.699 186.368 130.198 187.046 127.651 187.058C125.103 187.071 122.596 186.417 120.377 185.161Z" fill="#59A8A0"/>
<path d="M99.4155 127.321L127.705 116.577L151.13 127.327L124.746 143.408C118.783 139.517 105.194 131.461 99.4155 127.321Z" fill="url(#paint0_linear_37_698)"/>
<path d="M68.4021 142.281L95.3959 128.907L115.799 141.332L89.4142 155.604C83.4579 151.738 74.1806 146.42 68.4021 142.281Z" fill="url(#paint1_linear_37_698)"/>
<path d="M139.287 112.221L120.333 119.354C120.333 119.354 119.539 119.87 120.047 121.105C120.339 121.812 121.907 122.831 121.907 122.831L138.271 132.384C139.166 132.784 140.117 133.042 141.091 133.148C142.399 133.225 144.59 132.161 144.59 132.161L159.83 123.309L139.287 112.221Z" fill="#34323D"/>
<path d="M139.021 111.336L120.91 118.761C120.91 118.761 119.64 119.456 119.977 120.398C120.339 121.099 120.903 121.674 121.596 122.048L138.005 131.505C138.899 131.905 139.85 132.163 140.824 132.269C142.132 132.346 144.323 131.282 144.323 131.282L158.75 123.054L139.021 111.336Z" fill="#68E1FD"/>
<path opacity="0.45" d="M139.021 111.336L120.91 118.761C120.91 118.761 119.64 119.456 119.977 120.398C120.339 121.099 120.903 121.674 121.596 122.048L138.005 131.505C138.899 131.905 139.85 132.163 140.824 132.269C142.132 132.346 144.323 131.282 144.323 131.282L158.75 123.054L139.021 111.336Z" fill="#06577A"/>
<path d="M181.851 136.333C182.197 136.48 182.58 136.512 182.945 136.424C183.31 136.335 183.637 136.131 183.877 135.842C183.877 135.842 184.233 135.772 184.233 134.212V61.7941C184.213 61.1677 184.062 60.5524 183.79 59.9883C183.518 59.4243 183.13 58.9242 182.651 58.5207C180.882 57.2777 179.037 56.1462 177.127 55.1325L96.901 8.68614L95.9993 8.2276C95.6955 8.07628 95.3477 8.03934 95.0191 8.12349C94.6904 8.20764 94.4028 8.4073 94.2086 8.68614C93.9735 9.08739 93.8384 9.53964 93.8149 10.0044C93.7831 10.7623 93.8149 18.0799 93.8149 18.0799V83.2309C93.8148 83.8564 93.9445 84.4751 94.196 85.0474C94.4475 85.6198 94.8151 86.1334 95.2754 86.5554L181.851 136.333Z" fill="#68E1FD"/>
<path d="M182.759 125.359V62.8831C182.759 60.807 182.474 59.6479 180.854 58.7817L96.2407 9.61592C96.0741 9.49173 95.8763 9.41652 95.6695 9.3987C95.4627 9.38089 95.2551 9.42119 95.0698 9.51507C94.8846 9.60896 94.7291 9.75273 94.6207 9.93027C94.5123 10.1078 94.4554 10.3121 94.4563 10.5203L94.6659 74.767L182.759 125.359Z" fill="white"/>
<path d="M192.57 124.659L210.502 116.603L220.345 123.926L205.276 132.69C201.657 130.34 196.056 127.136 192.57 124.659Z" fill="url(#paint2_linear_37_698)"/>
<path d="M176.936 63.469V85.0396L161.373 75.9898L161.481 54.4638L176.936 63.469Z" fill="#FB9C4D"/>
<path d="M157.505 52.6997V74.2702L141.942 65.2141L142.05 43.6945L157.505 52.6997Z" fill="#06577A"/>
<path d="M137.719 41.3635V62.9341L122.155 53.8779L122.257 32.3583L137.719 41.3635Z" fill="#F78B72"/>
<path d="M117.068 29.5816V51.1521L101.505 42.1023L101.606 20.5764L117.068 29.5816Z" fill="#22B573"/>
<path d="M177.419 90.1791L142.424 70.2453C142.207 70.1285 141.953 70.1009 141.715 70.1682C141.478 70.2355 141.276 70.3926 141.152 70.6063C141.027 70.82 140.991 71.0737 141.049 71.314C141.108 71.5543 141.257 71.7625 141.465 71.8948L176.46 91.8285C176.678 91.9453 176.932 91.973 177.169 91.9056C177.406 91.8383 177.608 91.6812 177.733 91.4675C177.857 91.2538 177.894 91.0001 177.835 90.7598C177.777 90.5195 177.627 90.3113 177.419 90.1791Z" fill="#FBB03B"/>
<path d="M176.733 96.121L141.738 76.1872C141.521 76.0705 141.267 76.0428 141.029 76.1102C140.792 76.1775 140.59 76.3345 140.466 76.5482C140.342 76.762 140.305 77.0157 140.363 77.256C140.422 77.4963 140.571 77.7045 140.779 77.8367L175.774 97.7705C175.992 97.8873 176.246 97.9149 176.483 97.8476C176.721 97.7802 176.923 97.6232 177.047 97.4095C177.171 97.1958 177.208 96.9421 177.149 96.7018C177.091 96.4615 176.942 96.2533 176.733 96.121Z" fill="#FBB03B"/>
<path d="M176.327 101.795L141.332 81.8617C141.115 81.7449 140.861 81.7173 140.623 81.7846C140.386 81.8519 140.184 82.009 140.06 82.2227C139.935 82.4364 139.899 82.6901 139.957 82.9304C140.016 83.1707 140.165 83.3789 140.373 83.5111L175.368 103.445C175.586 103.562 175.84 103.589 176.077 103.522C176.314 103.455 176.516 103.298 176.641 103.084C176.765 102.87 176.802 102.617 176.743 102.376C176.685 102.136 176.535 101.928 176.327 101.795Z" fill="#FBB03B"/>
<path d="M129.525 79.1698C132.788 78.2977 134.471 73.9649 133.282 69.4922C132.094 65.0195 128.485 62.1006 125.222 62.9727C121.958 63.8448 120.276 68.1776 121.465 72.6503C122.653 77.123 126.262 80.0419 129.525 79.1698Z" fill="#06577A"/>
<path d="M108.413 69.085C111.676 68.2129 113.359 63.8801 112.17 59.4074C110.982 54.9346 107.373 52.0158 104.11 52.8879C100.846 53.76 99.1642 58.0928 100.353 62.5655C101.541 67.0382 105.15 69.9571 108.413 69.085Z" fill="#FB9C4D"/>
<path d="M97.8409 130.722C97.8409 130.722 101.683 129.009 102.61 128.939C103.537 128.868 105.08 129.187 103.734 130.887C103.734 130.887 99.6951 133.537 99.1617 133.619C98.6283 133.702 97.3329 133.295 97.3012 133.435C97.2694 133.575 97.1488 134.6 97.1488 134.6C97.1488 134.6 93.7706 135.874 93.6245 133.626C93.6245 133.333 94.1135 129.123 94.1135 129.123" fill="#E55600"/>
<path d="M93.4339 120.787C94.1007 116.431 95.3389 112.208 95.8342 107.801C96.1517 105.031 96.3804 102.241 96.7233 99.4709C97.0662 96.7005 98.0949 94.0193 98.7553 91.2745C98.7724 91.2106 98.768 91.1429 98.7427 91.0818C98.7175 91.0208 98.6727 90.9698 98.6156 90.9369C98.6156 90.8414 98.6727 90.7459 98.7045 90.6503C99.0474 90.3255 99.3966 90.0135 99.7331 89.7205L104.458 92.9048C104.458 92.9048 104.458 95.8026 104.28 100.012C103.734 102.464 103.315 104.649 102.692 106.973C102.758 107.048 102.806 107.137 102.831 107.233C102.856 107.329 102.859 107.43 102.838 107.527C101.302 114.845 100.182 122.245 99.4855 129.69C99.4767 129.813 99.4324 129.931 99.358 130.03C99.2836 130.128 99.1823 130.202 99.0664 130.244L98.9331 131.39C94.8246 132.983 93.9229 130.212 93.9229 130.212C93.9229 130.212 93.7388 127.849 93.5038 124.576C93.4213 123.302 93.4022 122.048 93.4339 120.787Z" fill="#34323D"/>
<path d="M122.555 75.3847L122.663 75.4229C122.612 75.3568 122.577 75.2795 122.562 75.1973C122.547 75.1152 122.551 75.0305 122.574 74.9504C122.598 74.8702 122.64 74.7967 122.697 74.7361C122.755 74.6754 122.826 74.6293 122.904 74.6014C123.133 74.525 123.368 74.4613 123.603 74.3848C123.621 74.3572 123.642 74.3315 123.666 74.3084C123.742 74.2403 123.825 74.1805 123.914 74.1301C123.955 74.0669 124.012 74.0151 124.078 73.9795C124.145 73.9439 124.219 73.9256 124.295 73.9263H124.473C124.669 73.8817 124.873 73.8435 125.108 73.7989L125.825 73.6397C125.847 73.574 125.881 73.5134 125.927 73.4614C126.916 72.2694 127.818 71.0073 128.626 69.6848C128.918 69.239 129.743 69.5065 129.54 70.0669C129.352 70.6991 129.108 71.313 128.81 71.9011C129.87 70.8184 130.448 70.5764 131.413 69.4046C131.826 68.9078 132.524 69.6211 132.118 70.1115C131.87 70.4108 130.892 71.1687 130.645 71.4616C131.121 71.0222 132.328 70.1179 132.81 69.6848C133.293 69.2517 133.998 69.965 133.515 70.3917C132.745 71.0795 131.985 71.778 131.235 72.487C131.915 72.0667 132.582 71.6272 133.229 71.156C133.75 70.7738 134.245 71.6463 133.731 72.0221C132.988 72.5634 132.22 73.0665 131.432 73.5378C131.929 73.4347 132.417 73.2942 132.893 73.1175C133.49 72.8819 133.75 73.8499 133.159 74.0855C132.67 74.2766 132.162 74.4358 131.661 74.595L130.905 74.837C130.609 74.9168 130.326 75.0414 130.067 75.2064C129.084 75.8136 128.013 76.2627 126.892 76.5374L126.682 76.6648C126.617 76.7022 126.542 76.7219 126.467 76.7219C126.391 76.7219 126.316 76.7022 126.251 76.6648C124.926 76.9289 123.554 76.8186 122.288 76.3464C121.698 76.1298 121.92 75.1618 122.555 75.3847Z" fill="#FCBF81"/>
<path d="M107.887 67.2711C108.071 67.0654 108.271 66.8738 108.483 66.6979C108.479 66.7125 108.479 66.7279 108.483 66.7425C108.479 66.7624 108.482 66.7832 108.49 66.8018C108.498 66.8204 108.512 66.8358 108.53 66.8457C108.548 66.8557 108.568 66.8597 108.588 66.8572C108.609 66.8546 108.628 66.8457 108.642 66.8317L109.036 66.5323C109.013 66.5805 108.998 66.6321 108.992 66.6852C108.978 66.7885 109.004 66.893 109.064 66.978C109.124 67.063 109.214 67.1222 109.315 67.1437C109.374 67.161 109.435 67.165 109.495 67.1553C109.555 67.1455 109.613 67.1224 109.663 67.0875C109.713 67.0527 109.754 67.007 109.784 66.9539C109.814 66.9008 109.832 66.8416 109.836 66.7807L110.001 66.6852C109.995 66.7274 109.995 66.7704 110.001 66.8126C110 66.8734 110.015 66.9335 110.043 66.9873C110.071 67.0412 110.113 67.087 110.163 67.1206C110.214 67.1542 110.272 67.1745 110.332 67.1797C110.393 67.1848 110.454 67.1747 110.509 67.1501L110.681 67.0737C110.71 67.1031 110.744 67.1262 110.782 67.1416C110.821 67.1569 110.862 67.1642 110.903 67.1628C111.276 67.1684 111.649 67.1514 112.02 67.1119C112.001 67.0943 111.987 67.0723 111.978 67.0478C111.969 67.0233 111.967 66.9969 111.97 66.9712C111.974 66.9454 111.984 66.9209 111.999 66.8999C112.015 66.879 112.035 66.8621 112.059 66.8508C112.541 66.6806 113.036 66.5465 113.538 66.4495H113.595L113.633 66.4177C113.842 66.1359 113.939 65.7865 113.906 65.4369C114.049 65.3504 114.171 65.2328 114.262 65.0928C114.353 64.9528 114.412 64.794 114.433 64.6281C114.401 64.6132 114.375 64.5887 114.357 64.5581C114.315 64.4849 114.285 64.4053 114.268 64.3224C114.228 64.2036 114.209 64.0786 114.211 63.953C114.212 63.923 114.223 63.894 114.241 63.8701C114.259 63.8462 114.284 63.8284 114.313 63.8193C114.23 63.5582 114.122 63.2971 114.021 63.0614C114.645 62.5345 115.1 61.8344 115.329 61.0489C115.352 60.9756 115.35 60.8969 115.325 60.8244C115.3 60.7519 115.252 60.6896 115.188 60.6466C115.125 60.6037 115.049 60.5825 114.973 60.5861C114.896 60.5897 114.823 60.618 114.764 60.6668C114.524 60.8648 114.297 61.0775 114.084 61.3037C114.035 61.3152 113.989 61.3393 113.951 61.3737C112.816 62.4996 111.62 63.5626 110.369 64.5581C110.16 64.7236 107.69 66.4304 107.829 66.5514C107.779 66.5769 105.296 69.2517 107.887 67.2711ZM109.214 66.6342C109.218 66.6475 109.225 66.6596 109.234 66.6699C109.243 66.6802 109.255 66.6883 109.267 66.6938C109.28 66.6992 109.294 66.7019 109.307 66.7015C109.321 66.7011 109.335 66.6977 109.347 66.6916C109.377 66.736 109.417 66.7732 109.463 66.8007C109.509 66.8282 109.56 66.8453 109.614 66.8508C109.589 66.9074 109.544 66.9519 109.486 66.9746C109.429 66.9973 109.365 66.9963 109.309 66.9718C109.253 66.9473 109.208 66.9013 109.186 66.844C109.163 66.7867 109.164 66.7227 109.188 66.6661L109.214 66.6342Z" fill="#FCBF81"/>
<path d="M108.325 66.6024C108.788 66.4515 109.219 66.2138 109.595 65.9019C109.668 65.8356 109.755 65.7847 109.848 65.7523C109.942 65.7198 110.041 65.7065 110.14 65.713C110.238 65.7195 110.335 65.7458 110.423 65.7903C110.512 65.8347 110.591 65.8965 110.655 65.9719C110.746 65.797 110.824 65.6161 110.89 65.4306C110.967 65.248 111.111 65.1017 111.292 65.0211C111.472 64.9404 111.677 64.9316 111.864 64.9962C112.051 65.0609 112.206 65.1943 112.299 65.3694C112.392 65.5446 112.415 65.7485 112.363 65.9401C112.133 66.6982 111.674 67.3659 111.049 67.8507C110.405 68.2571 109.693 68.544 108.947 68.6977C108.817 68.7198 108.684 68.7095 108.56 68.6678C108.435 68.626 108.323 68.5541 108.232 68.4584C108.142 68.3628 108.076 68.2462 108.041 68.1191C108.007 67.992 108.004 67.8582 108.033 67.7297L107.988 67.6532C107.896 67.4687 107.88 67.2554 107.943 67.0591C108.006 66.8627 108.143 66.6988 108.325 66.6024Z" fill="#FCBF81"/>
<path d="M110.49 67.978C111.245 67.7958 111.906 67.3427 112.351 66.7043C112.353 66.7162 112.357 66.7274 112.364 66.7374C112.371 66.7474 112.379 66.7559 112.39 66.7625C112.4 66.769 112.411 66.7735 112.423 66.7755C112.435 66.7776 112.447 66.7772 112.458 66.7744L113.182 66.5897C113.331 66.5613 113.475 66.5097 113.608 66.4368C113.919 66.2394 113.83 65.8573 113.83 65.5389C113.836 65.5202 113.836 65.5002 113.83 65.4815L113.957 65.3733C114.177 65.2144 114.343 64.9923 114.433 64.7364C114.484 64.4689 114.306 64.2142 114.268 63.9531C114.33 63.8322 114.352 63.6947 114.33 63.5606C114.308 63.4266 114.244 63.303 114.148 63.2079C113.887 62.9532 113.627 63.1315 113.379 63.3035C112.846 63.6686 112.325 64.0528 111.817 64.4562C111.716 64.5326 111.817 64.6791 111.944 64.6027C112.219 64.3861 112.499 64.1738 112.782 63.9658C113.043 63.7107 113.341 63.4961 113.665 63.3289C114.452 63.1825 114.002 64.0422 113.817 64.2397C113.633 64.4371 113.582 64.4562 113.462 64.5581L112.655 65.2586C112.645 65.2672 112.637 65.2779 112.632 65.2901C112.626 65.3022 112.623 65.3154 112.624 65.3287C112.578 65.9173 112.345 66.4756 111.958 66.9207C111.572 67.3658 111.052 67.6741 110.477 67.7997C110.319 67.8443 110.357 68.0354 110.49 67.978ZM112.884 65.4306C112.869 65.4202 112.851 65.4146 112.833 65.4146C112.815 65.4146 112.797 65.4202 112.782 65.4306C112.782 65.4306 112.782 65.386 112.782 65.3669C113.275 65.0174 113.722 64.6089 114.116 64.1505C114.116 64.2269 114.167 64.297 114.192 64.3798C114.228 64.4922 114.23 64.613 114.197 64.7265C114.164 64.84 114.098 64.941 114.008 65.0166C113.773 65.2777 113.189 65.8573 112.865 65.4815L112.884 65.4306ZM112.427 66.5324C112.596 66.2417 112.71 65.9221 112.763 65.5898C113.024 65.8573 113.36 65.749 113.646 65.5898C113.659 65.7254 113.659 65.8618 113.646 65.9974C113.646 66.2012 113.487 66.284 113.303 66.3349C113.03 66.4432 112.706 66.5069 112.395 66.5833L112.427 66.5324Z" fill="#34323D"/>
<path d="M99.2061 72.0285C99.5109 71.5509 109.614 65.4179 110.23 64.6536C110.885 65.4913 111.273 66.5077 111.343 67.57C111.413 68.6323 111.163 69.6912 110.623 70.6083C110.623 70.6083 104.959 77.2635 102.013 77.8558" fill="#5F66FC"/>
<path d="M106.248 137.059L108.534 137.88C108.603 138.088 108.724 138.274 108.885 138.421C109.046 138.569 109.242 138.672 109.455 138.721C109.535 138.817 109.648 138.881 109.772 138.899C110.698 138.965 111.626 138.815 112.484 138.46C113.576 138.116 117.843 136.479 116.662 139.549C115.881 140.096 115.011 140.574 114.217 141.058C113.767 141.332 113.322 141.606 112.859 141.86C112.614 142.027 112.344 142.152 112.058 142.23C111.423 142.325 109.957 141.86 109.919 142.02C109.88 142.179 109.741 143.357 109.741 143.357C109.741 143.357 105.855 144.847 105.683 142.236C105.664 141.892 106.248 137.059 106.248 137.059Z" fill="#E55600"/>
<path d="M103.035 113.628C102.559 105.929 102.299 98.1781 100.673 90.6121C100.603 88.6442 99.3331 89.8989 99.4029 89.1219C100.095 82.7851 109.296 90.3256 109.296 90.3256C109.671 90.6313 109.715 92.5737 109.792 93.0131C110.215 95.4459 110.57 97.8872 110.858 100.337C112.382 112.705 111.817 125.015 111.195 137.422C109.239 139.428 107.963 140.026 104.813 138.734C104.178 130.614 103.588 122.494 103.067 114.361L103.035 113.628Z" fill="#34323D"/>
<path d="M97.7899 84.5365C97.4352 80.7261 97.3525 76.8951 97.5423 73.0729C97.6121 72.0731 97.8852 69.6148 98.8821 69.0352C101.073 67.7615 104.121 68.9015 105.969 70.2644C108.433 72.0858 109.855 89.0263 109.861 93.1914C106.47 94.5352 102.038 95.0447 98.571 93.6054C98.2662 93.478 98.1963 89.3193 98.1519 88.8034C98.063 87.3769 97.936 85.9503 97.7899 84.5365Z" fill="#8B93FC"/>
<path d="M104.845 78.983C104.949 80.1817 105.418 81.3193 106.188 82.242C106.958 83.1646 107.992 83.8277 109.15 84.1416C109.15 84.3773 109.226 85.842 109.245 86.0522C106.477 85.4153 104.438 81.9062 104.165 78.9576C104.108 78.5372 104.775 78.5436 104.845 78.983Z" fill="#34323D"/>
<path d="M104.921 61.7559C105.137 61.8578 106.191 66.6024 104.959 69.1307C103.727 71.6591 99.7139 68.0544 98.9646 65.8127C98.2153 63.5709 100.863 59.8389 104.921 61.7559Z" fill="#FCBF81"/>
<path d="M104.775 62.3545C104.695 62.7617 104.499 63.1369 104.21 63.4343C103.922 63.7317 103.553 63.9384 103.149 64.0295C101.797 64.2587 100.692 64.3734 100.647 64.972C100.603 65.5707 102.946 65.3223 102.698 66.6661C102.529 67.5694 102.239 68.4456 101.835 69.2708C101.575 69.9077 98.1646 67.1692 97.5613 63.4945C96.9581 59.8198 100.26 59.5077 100.419 59.5077C101.011 58.9299 101.802 58.6017 102.629 58.5907C104.229 58.5461 104.534 59.2275 104.534 59.2275C104.923 59.0842 105.347 59.0719 105.744 59.1926C106.14 59.3133 106.487 59.5603 106.731 59.8962C107.931 61.291 107.182 63.278 105.429 63.8129L104.775 62.3545Z" fill="#E55600"/>
<path d="M105.848 72.0985C105.848 72.0985 114.516 75.0408 117.323 74.4931C120.013 73.7968 122.654 72.9224 125.228 71.8756C127.483 73.1493 128.168 75.9834 127.4 78.4162C124.104 79.639 114.313 83.0844 110.839 82.1291C106.636 80.9764 101.949 79.2632 101.949 79.2632C101.949 79.2632 97.4026 76.2572 105.848 72.0985Z" fill="#8B93FC"/>
<path d="M175.844 107.744V112.96C175.844 113.147 175.795 113.331 175.702 113.494C175.609 113.656 175.476 113.792 175.316 113.888C175.155 113.983 174.972 114.036 174.786 114.039C174.599 114.043 174.414 113.998 174.25 113.909L169.443 111.285C169.274 111.191 169.133 111.054 169.035 110.887C168.936 110.72 168.884 110.53 168.885 110.336V104.999C168.885 104.81 168.936 104.624 169.03 104.461C169.125 104.297 169.26 104.162 169.423 104.067C169.586 103.972 169.771 103.922 169.96 103.921C170.148 103.921 170.334 103.969 170.497 104.063L175.304 106.833C175.465 106.926 175.598 107.058 175.693 107.218C175.787 107.377 175.84 107.558 175.844 107.744Z" fill="#EF7F6C"/>
<path d="M166.129 102.369V107.585C166.128 107.772 166.079 107.956 165.987 108.119C165.894 108.281 165.761 108.417 165.6 108.513C165.44 108.608 165.257 108.66 165.07 108.664C164.884 108.668 164.699 108.623 164.535 108.533L159.728 105.884C159.559 105.791 159.417 105.653 159.319 105.486C159.221 105.319 159.169 105.129 159.169 104.935V99.5983C159.17 99.4093 159.22 99.2238 159.315 99.0603C159.409 98.8968 159.545 98.761 159.708 98.6663C159.871 98.5716 160.056 98.5214 160.244 98.5207C160.433 98.52 160.618 98.5687 160.782 98.6621L165.589 101.432C165.753 101.527 165.889 101.664 165.984 101.828C166.079 101.992 166.129 102.179 166.129 102.369Z" fill="#06577A"/>
<path d="M155.461 96.3503V101.566C155.46 101.754 155.411 101.937 155.318 102.1C155.226 102.263 155.093 102.399 154.932 102.494C154.772 102.59 154.589 102.642 154.402 102.646C154.215 102.649 154.031 102.604 153.867 102.515L149.06 99.8658C148.89 99.7722 148.749 99.6349 148.651 99.4679C148.553 99.301 148.501 99.1107 148.501 98.9168V93.5799C148.502 93.3909 148.552 93.2054 148.647 93.0419C148.741 92.8784 148.877 92.7426 149.04 92.6479C149.203 92.5533 149.388 92.5031 149.576 92.5023C149.765 92.5016 149.95 92.5503 150.114 92.6437L154.921 95.4141C155.085 95.509 155.221 95.6454 155.316 95.8097C155.41 95.9741 155.46 96.1605 155.461 96.3503Z" fill="#22B573"/>
<path d="M224.358 109.661C224.358 109.661 225.812 122.181 219.202 124.608C212.592 127.034 209.042 120.723 208.959 109.661" fill="#06577A"/>
<path d="M216.656 114.125C220.906 114.125 224.352 112.126 224.352 109.661C224.352 107.195 220.906 105.196 216.656 105.196C212.405 105.196 208.959 107.195 208.959 109.661C208.959 112.126 212.405 114.125 216.656 114.125Z" fill="#F2696A"/>
<path d="M214.687 99.732C214.687 99.732 217.71 95.3568 216.389 92.3317C216.389 92.3317 215.303 90.3893 213.76 90.0772C213.76 90.0772 213.913 94.2232 212.376 93.6946C210.839 93.166 212.376 89.3512 212.376 89.3512C212.376 89.3512 210.757 87.154 208.985 87.2241C207.213 87.2941 208.985 91.1026 207.753 90.4721C206.521 89.8416 207.677 86.5999 206.293 86.2114C205.025 85.9131 203.74 85.7003 202.444 85.5746C202.444 85.5746 201.136 89.3575 202.444 89.8989C203.753 90.4402 205.677 90.6249 204.756 91.4592C203.835 92.2935 201.213 91.3318 201.213 91.3318C201.213 91.3318 201.047 93.4589 201.936 94.3824C202.825 95.3058 208.064 93.2679 207.137 95.0957C206.21 96.9235 202.749 96.0064 202.749 96.0064C202.749 96.0064 204.521 98.5538 206.597 99.7002C208.674 100.847 214.687 99.732 214.687 99.732Z" fill="#8CCC00"/>
<path d="M213.995 110.68C213.995 110.68 216.179 108.521 215.748 106.661C215.529 106.003 215.077 105.448 214.478 105.101C214.478 105.101 214.122 107.47 213.303 107.011C212.484 106.553 213.766 104.547 213.766 104.547C213.766 104.547 213.081 103.126 212.071 102.974C211.061 102.821 211.658 105.177 211.023 104.687C210.388 104.196 211.392 102.477 210.649 102.139C209.96 101.837 209.251 101.582 208.528 101.375C208.528 101.375 207.385 103.381 208.071 103.833C208.756 104.286 209.829 104.591 209.214 104.967C208.598 105.343 207.213 104.515 207.213 104.515C207.213 104.515 206.896 105.706 207.302 106.324C207.709 106.941 210.896 106.324 210.179 107.285C209.461 108.247 207.588 107.336 207.588 107.336C208.022 108.278 208.629 109.13 209.379 109.845C210.445 110.699 213.995 110.68 213.995 110.68Z" fill="#8CCC00"/>
<path d="M222.009 106.011C222.009 106.011 227.311 106.215 229.146 103.464C229.146 103.464 230.194 101.503 229.629 100.031C229.629 100.031 226.225 102.388 225.819 100.802C225.412 99.2162 229.47 98.471 229.47 98.471C229.47 98.471 230.448 95.9236 229.47 94.4652C228.492 93.0068 226.206 96.5477 226.079 95.1657C225.952 93.7837 229.298 93.0195 228.873 91.6375C228.437 90.4068 227.92 89.2068 227.324 88.0456C227.324 88.0456 223.437 88.969 223.685 90.3701C223.933 91.7712 224.815 93.4971 223.615 93.1596C222.415 92.8221 221.818 90.0963 221.818 90.0963C221.818 90.0963 219.913 91.1025 219.646 92.3508C219.38 93.599 223.876 96.9362 221.844 97.1336C219.812 97.3311 218.719 93.9111 218.719 93.9111C218.719 93.9111 217.538 96.7706 217.678 99.1525C217.818 101.534 222.009 106.011 222.009 106.011Z" fill="#8CCC00"/>
<path d="M203.594 87.275L205.289 88.727C205.232 88.122 205.162 87.5234 205.067 86.9247C205.016 86.6063 205.499 86.4725 205.55 86.791C205.677 87.5934 205.772 88.398 205.835 89.2047C207.321 90.5102 208.794 91.8795 210.172 93.3315C210.289 92.3127 210.319 91.2858 210.261 90.2619C210.261 89.9371 210.744 89.9371 210.763 90.2619C210.828 91.4463 210.779 92.6342 210.617 93.8092C211.493 94.7581 212.315 95.7553 213.081 96.7961C213.941 95.6023 214.526 94.2319 214.795 92.7838C214.852 92.4654 215.335 92.5992 215.278 92.9176C214.991 94.4587 214.356 95.9138 213.423 97.1718C213.409 97.1889 213.392 97.2039 213.373 97.2164C215.695 100.323 217.035 104.057 217.221 107.935C217.221 108.26 216.732 108.26 216.719 107.935C216.54 104.194 215.256 100.592 213.03 97.5858C211.008 98.1343 208.91 98.3494 206.82 98.2226C206.502 98.2226 206.496 97.7004 206.82 97.7195C208.802 97.8485 210.793 97.6637 212.719 97.1718C211.656 95.7332 210.488 94.3752 209.226 93.1086H209.182C208.013 93.2105 206.845 93.3188 205.67 93.357C204.934 93.4629 204.184 93.3752 203.492 93.1023C203.206 92.9558 203.46 92.5227 203.746 92.6692C204.553 93.0768 205.683 92.8603 206.553 92.8093C207.296 92.7647 208.039 92.701 208.782 92.6374C206.997 90.8605 205.08 89.211 203.232 87.6444C202.99 87.4215 203.346 87.0839 203.594 87.275Z" fill="#06577A"/>
<path d="M219.119 97.0572C219.102 96.993 219.11 96.9244 219.143 96.8665C219.176 96.8086 219.23 96.7661 219.294 96.7483C219.358 96.7306 219.426 96.7391 219.484 96.7719C219.542 96.8048 219.584 96.8593 219.602 96.9235C220.144 98.7772 221.272 100.404 222.815 101.56C223.382 99.9804 223.901 98.3819 224.371 96.7642C223.162 95.5563 222.167 94.1498 221.431 92.6055C221.291 92.3126 221.723 92.0578 221.863 92.3508C222.544 93.7596 223.447 95.0498 224.536 96.172C225.057 94.3251 225.52 92.4527 225.908 90.5676C225.971 90.2491 226.454 90.3829 226.39 90.7013C225.857 93.2827 225.198 95.8302 224.415 98.3437C225.361 98.158 226.28 97.8564 227.152 97.4457C227.444 97.3056 227.698 97.7386 227.406 97.8788C226.399 98.3592 225.33 98.6999 224.231 98.8914C223.704 100.547 223.107 102.178 222.479 103.795C223.977 103.748 225.454 103.422 226.835 102.834C227.127 102.706 227.381 103.139 227.089 103.267C225.568 103.921 223.936 104.274 222.282 104.305C221.477 106.317 220.593 108.3 219.627 110.253C219.481 110.54 219.05 110.291 219.196 109.998C220.487 107.404 221.634 104.74 222.631 102.018C220.947 100.798 219.713 99.0539 219.119 97.0572Z" fill="#06577A"/>
<path d="M210.045 103.56L211.423 105.878C211.593 105.651 211.739 105.408 211.861 105.152C212.001 104.859 212.433 105.114 212.293 105.406C212.136 105.733 211.942 106.041 211.715 106.324L213.208 108.839C213.375 108.678 213.482 108.465 213.512 108.234C213.55 107.916 214.052 107.916 214.014 108.234C213.968 108.636 213.771 109.006 213.462 109.266L215.328 112.412C215.362 112.469 215.372 112.538 215.355 112.602C215.338 112.667 215.297 112.722 215.24 112.756C215.182 112.79 215.114 112.799 215.05 112.783C214.985 112.766 214.93 112.724 214.897 112.667L212.433 108.521C212.019 108.527 211.607 108.465 211.214 108.336C210.909 108.234 211.042 107.75 211.347 107.852C211.599 107.931 211.859 107.981 212.122 107.998L209.626 103.795C209.612 103.742 209.615 103.685 209.637 103.634C209.658 103.583 209.696 103.54 209.744 103.513C209.792 103.486 209.848 103.476 209.903 103.484C209.957 103.493 210.007 103.519 210.045 103.56Z" fill="#06577A"/>
<path d="M9.23926 118.532L36.2331 105.158L56.6357 117.583L30.2514 131.881C24.2951 127.99 15.0178 122.672 9.23926 118.532Z" fill="url(#paint3_linear_37_698)"/>
<path d="M57.9818 83.2245V114.692C57.9818 114.692 27.8257 116.373 27.8257 114.692V83.2245" fill="#68E1FD"/>
<path d="M42.9006 121.334C51.2297 121.334 57.9818 118.241 57.9818 114.424C57.9818 110.608 51.2297 107.514 42.9006 107.514C34.5714 107.514 27.8193 110.608 27.8193 114.424C27.8193 118.241 34.5714 121.334 42.9006 121.334Z" fill="#68E1FD"/>
<path d="M42.9006 90.1345C51.2297 90.1345 57.9818 87.0408 57.9818 83.2245C57.9818 79.4083 51.2297 76.3146 42.9006 76.3146C34.5714 76.3146 27.8193 79.4083 27.8193 83.2245C27.8193 87.0408 34.5714 90.1345 42.9006 90.1345Z" fill="#3129A3"/>
<path d="M52.2985 88.5997L52.1969 88.657C51.6191 88.8608 51.0349 89.0455 50.438 89.1919L54.5401 54.7313C54.5401 54.7313 55.3973 54.26 56.6419 55.1198L52.4319 88.536L52.2985 88.5997Z" fill="#F78B72"/>
<path d="M47.625 89.6632L46.355 57.317C46.355 57.317 47.1297 56.712 48.4886 57.3679L49.53 89.3958C48.9006 89.5211 48.2645 89.6104 47.625 89.6632Z" fill="#F78B72"/>
<path d="M42.9006 90.1345L38.735 56.4126L30.3403 60.8706L33.7376 89.1983C36.7106 90.0623 39.815 90.3795 42.9006 90.1345Z" fill="#FCB749"/>
<defs>
<linearGradient id="paint0_linear_37_698" x1="116.694" y1="135.568" x2="130.996" y2="121.898" gradientUnits="userSpaceOnUse">
<stop stop-color="#59A8A0"/>
<stop offset="0.98" stop-color="#46847D"/>
</linearGradient>
<linearGradient id="paint1_linear_37_698" x1="84.2378" y1="147.803" x2="98.3683" y2="135.363" gradientUnits="userSpaceOnUse">
<stop stop-color="#59A8A0"/>
<stop offset="0.98" stop-color="#46847D"/>
</linearGradient>
<linearGradient id="paint2_linear_37_698" x1="201.85" y1="127.989" x2="210.331" y2="120.728" gradientUnits="userSpaceOnUse">
<stop stop-color="#59A8A0"/>
<stop offset="0.98" stop-color="#46847D"/>
</linearGradient>
<linearGradient id="paint3_linear_37_698" x1="25.0749" y1="124.073" x2="39.2172" y2="111.634" gradientUnits="userSpaceOnUse">
<stop stop-color="#59A8A0"/>
<stop offset="0.98" stop-color="#46847D"/>
</linearGradient>
</defs>
</svg>
