<svg width="400" height="121" viewBox="0 0 400 121" fill="none" xmlns="http://www.w3.org/2000/svg">
<path d="M38.9965 111.536C37.2727 114.234 34.8155 116.395 31.9076 117.77C28.5724 119.318 24.921 120.078 21.2396 119.993C17.2574 120.096 13.3286 119.068 9.91745 117.028C6.66896 114.996 4.11243 112.041 2.58008 108.55C0.792147 104.455 -0.0852869 100.027 0.00743405 95.5667V92.4744C-0.0918161 88.0113 0.803796 83.5814 2.6304 79.5007C4.22973 75.9997 6.82442 73.0369 10.0967 70.9752C13.4667 68.9478 17.3519 67.9191 21.2931 68.0108C25.0037 67.8978 28.687 68.6742 32.0302 70.2738C34.9136 71.6936 37.333 73.8928 39.0091 76.6173C40.7149 79.4666 41.7381 82.6659 42 85.9689H31.0207C31.0252 83.4669 30.1273 81.0457 28.4889 79.1422C27.5059 78.3157 26.3667 77.6916 25.1377 77.3062C23.9087 76.9209 22.6145 76.7821 21.3308 76.8979C19.8419 76.8157 18.3569 77.117 17.0204 77.7725C15.6838 78.4281 14.5413 79.4154 13.7041 80.6385C11.7348 84.2376 10.827 88.3133 11.0843 92.3996V95.5604C10.9995 98.5173 11.3351 101.471 12.0812 104.335C12.5771 106.321 13.7054 108.095 15.2986 109.395C17.0058 110.574 19.0602 111.159 21.139 111.056C23.6759 111.251 26.1935 110.488 28.187 108.921C29.887 107.145 30.8329 104.789 30.8288 102.34H41.7956C41.6544 105.591 40.6907 108.754 38.9933 111.539L38.9965 111.536Z" fill="#333333"/>
<path d="M65.2362 91.5108C64.2698 92.6733 62.9737 93.5213 61.5155 93.9451C62.9778 94.3733 64.275 95.2306 65.2362 96.404C66.112 97.6416 66.5483 99.1325 66.4764 100.643V106.482C66.3975 107.279 66.4936 108.084 66.758 108.84C67.0224 109.597 67.4488 110.288 68.0081 110.865C69.4362 111.87 71.1778 112.34 72.9225 112.19V119.985C69.6557 120.08 66.3913 119.729 63.2208 118.943C61.1188 118.426 59.2719 117.182 58.0119 115.436C56.7981 113.372 56.2234 111 56.3593 108.615V103.747C56.4388 102.936 56.3518 102.117 56.1035 101.34C55.8552 100.563 55.4507 99.8435 54.9144 99.2256C53.4996 98.1912 51.7504 97.7088 50 97.8701V90.1461C51.7525 90.3146 53.5052 89.8279 54.9144 88.7814C55.4557 88.1667 55.8633 87.4479 56.1119 86.67C56.3605 85.8921 56.4447 85.0718 56.3593 84.2602V79.3885C56.2419 76.9941 56.8475 74.6195 58.0987 72.5681C59.3556 70.8188 61.2038 69.5744 63.3076 69.0611C66.474 68.2696 69.736 67.9179 73 68.0161V75.7524C71.2531 75.594 69.5074 76.0678 68.0856 77.0863C67.5386 77.6559 67.1193 78.3338 66.8554 79.0754C66.5914 79.817 66.4887 80.6056 66.5539 81.3894V87.3215C66.603 88.8252 66.1386 90.3012 65.2362 91.5108Z" fill="#5B4A42"/>
<path d="M97.077 88.7621C98.4917 89.8033 100.245 90.2897 102 90.1279V97.8551C100.246 97.6907 98.493 98.1738 97.077 99.2117C96.5347 99.827 96.1264 100.546 95.8773 101.325C95.6283 102.103 95.544 102.924 95.6296 103.737V108.622C95.7657 111.008 95.1899 113.382 93.9741 115.448C92.7118 117.195 90.8616 118.44 88.756 118.957C85.567 119.742 82.2841 120.086 79 119.982V112.181C80.7481 112.334 82.4942 111.864 83.923 110.855C84.4782 110.273 84.9021 109.581 85.1666 108.825C85.4312 108.069 85.5303 107.265 85.4574 106.468V100.624C85.386 99.1252 85.815 97.6452 86.6781 96.4124C87.6422 95.2395 88.9412 94.3818 90.4053 93.9515C88.9456 93.5252 87.6478 92.6768 86.6781 91.5152C85.8106 90.295 85.3809 88.8221 85.4574 87.3317V81.4101C85.5272 80.6254 85.4264 79.835 85.1617 79.0921C84.897 78.3492 84.4746 77.6712 83.923 77.1036C82.4928 76.0954 80.7502 75.6174 79 75.7532V68.0167C82.2727 67.9165 85.5436 68.2675 88.7187 69.0595C90.8262 69.5732 92.6777 70.8186 93.9368 72.5694C95.1484 74.615 95.7243 76.9689 95.5923 79.3368V84.1971C95.5228 85.0175 95.6182 85.8433 95.873 86.6269C96.1279 87.4105 96.5371 88.1362 97.077 88.7621Z" fill="#5B4A42"/>
<path d="M155 120.471V121H142.975L133.377 102.215H125.217V121H114V69.008H133.686C137.235 68.9216 140.767 69.5326 144.079 70.806C146.796 71.8652 149.126 73.7217 150.759 76.1296C152.373 78.7016 153.183 81.6938 153.085 84.7255C153.219 87.914 152.383 91.0685 150.688 93.7765C148.96 96.2264 146.58 98.1476 143.815 99.3244L155 120.471ZM125.259 93.1419H133.705C134.808 93.2205 135.916 93.0815 136.965 92.7328C138.014 92.3841 138.984 91.8326 139.819 91.1099C140.524 90.3851 141.069 89.522 141.42 88.5756C141.771 87.6293 141.921 86.6204 141.859 85.6133C141.923 84.5954 141.774 83.5754 141.423 82.6173C141.072 81.6593 140.526 80.7839 139.819 80.0462C138.984 79.3236 138.014 78.7722 136.965 78.4235C135.916 78.0748 134.808 77.9357 133.705 78.0142H125.259V93.1419Z" fill="#333333"/>
<path d="M199.869 98.5185C201.273 100.618 202.006 103.095 201.969 105.621C202.113 107.774 201.75 109.93 200.909 111.917C200.069 113.905 198.774 115.667 197.129 117.064C193.018 119.918 188.058 121.288 183.064 120.949H163V69.0461H181.268C186.332 68.738 191.37 69.9807 195.71 72.6085C198.242 74.6246 199.962 77.4847 200.556 80.6652C201.151 83.8457 200.579 87.1339 198.947 89.9277C197.621 91.9461 195.677 93.4802 193.405 94.2999C196.018 94.8341 198.329 96.3424 199.869 98.5185ZM174.164 78.1074V90.7151H181.268C183.474 90.8798 185.675 90.3359 187.55 89.1627C188.237 88.616 188.782 87.9101 189.135 87.1059C189.489 86.3017 189.641 85.4235 189.579 84.5473C189.664 83.6257 189.529 82.6972 189.185 81.838C188.842 80.9788 188.298 80.2136 187.601 79.6053C185.698 78.4401 183.473 77.911 181.249 78.0946L174.164 78.1074ZM188.869 110.208C189.515 109.621 190.025 108.9 190.363 108.096C190.701 107.291 190.86 106.423 190.828 105.551C190.828 100.89 188.393 98.5601 183.522 98.5601H174.167V111.971H183.035C185.133 112.131 187.215 111.501 188.872 110.204L188.869 110.208Z" fill="#333333"/>
<path d="M240.667 110.679H222.291L218.899 121H207L226.241 69H236.66L256 121H244.072L240.667 110.679ZM237.682 101.605L231.439 82.6451L225.244 101.601L237.682 101.605Z" fill="#333333"/>
<path d="M297 111.967V121H263V69H274.297V111.951L297 111.967Z" fill="#333333"/>
<path d="M335.353 110.676H316.601L313.127 121H301L320.644 69H331.264L351 121H338.828L335.353 110.676ZM332.307 101.601L325.936 82.6419L319.618 101.598L332.307 101.601Z" fill="#333333"/>
<path d="M380.726 89.0301L368.632 68.9564H357.425V120.953H368.632V87.4147L374.087 96.4468L380.726 89.0301Z" fill="#5B4A42"/>
<path d="M388.831 68.9564V102.492L383.716 93.9981L377.055 101.405L388.834 120.956H400V68.9564H388.831Z" fill="#5B4A42"/>
<path d="M38.7021 43.5359C36.9907 46.2367 34.5487 48.3984 31.6588 49.7706C28.3524 51.3134 24.7344 52.074 21.0859 51.9933C17.1251 52.0938 13.2175 51.0655 9.82027 49.0287C6.59487 46.9956 4.05517 44.0415 2.53037 40.5495C0.76219 36.4539 -0.0979904 32.0246 0.00886554 27.5657V24.4733C-0.0915297 20.0087 0.800559 15.5775 2.62087 11.4988C4.20096 7.99613 6.77315 5.03222 10.02 2.97288C13.3704 0.94446 17.2317 -0.084207 21.1483 0.00828381C24.824 -0.0902946 28.4697 0.692173 31.7805 2.29018C34.6409 3.70652 37.0417 5.90264 38.7052 8.62465C40.4051 11.4708 41.4209 14.6721 41.673 17.9767H30.7881C30.7944 15.4726 29.8995 13.0497 28.2666 11.1497C27.2893 10.3232 26.1573 9.6991 24.9363 9.31377C23.7153 8.92844 22.4298 8.78956 21.1546 8.90521C19.6759 8.82293 18.201 9.12417 16.8733 9.77966C15.5456 10.4352 14.4102 11.4226 13.5776 12.646C11.6736 16.2525 10.8175 20.319 11.106 24.386V27.547C11.0219 30.504 11.3549 33.4581 12.0952 36.3223C12.5912 38.3066 13.7153 40.0778 15.3002 41.3724C16.9954 42.5606 19.0395 43.1488 21.1078 43.0434C23.6281 43.2391 26.1294 42.4764 28.1105 40.908C29.8002 39.1328 30.7421 36.7767 30.7413 34.3272H41.6231C41.4462 37.5944 40.4411 40.7631 38.7021 43.5359Z" fill="#333333"/>
<path d="M101.563 51.4713V52H89.5604L80.0246 33.2211H71.8776V52H60.6932V0.00796373H80.294C83.8383 -0.0780024 87.3649 0.532731 90.6734 1.80544C93.3842 2.86416 95.7095 4.71994 97.3417 7.12735C98.951 9.69853 99.7582 12.6898 99.6607 15.7206C99.8045 18.9067 98.978 22.0615 97.2904 24.7688C95.565 27.2209 93.1874 29.1419 90.4264 30.315L101.563 51.4713ZM71.8744 24.1504H80.3133C81.413 24.2299 82.5176 24.0914 83.5634 23.7427C84.6093 23.3941 85.5759 22.8423 86.4074 22.1191C87.1099 21.3945 87.6535 20.5317 88.0036 19.5856C88.3538 18.6395 88.5027 17.6309 88.441 16.6241C88.5034 15.6052 88.3551 14.5843 88.0052 13.6251C87.6554 12.666 87.1114 11.7891 86.4074 11.0491C84.7245 9.59428 82.5335 8.86397 80.3133 9.01774H71.8776L71.8744 24.1504Z" fill="#333333"/>
<path d="M119.542 52V0H130.731V52H119.542Z" fill="#333333"/>
<path d="M158.919 26.4891C156.587 25.2547 154.56 23.5155 152.986 21.3985C151.478 19.2768 150.7 16.723 150.769 14.1214C150.725 11.4504 151.574 8.84096 153.183 6.707C154.921 4.47721 157.239 2.76705 159.884 1.76303C162.998 0.544267 166.32 -0.0533984 169.664 0.00378676C173.026 -0.0571424 176.361 0.61785 179.434 1.98137C182.111 3.15885 184.395 5.07671 186.017 7.50864C187.584 9.93391 188.393 12.7699 188.343 15.6561H177.455C177.5 14.7112 177.341 13.7676 176.989 12.8894C176.637 12.0111 176.101 11.2186 175.416 10.5655C173.748 9.20918 171.628 8.53481 169.483 8.67835C168.029 8.63636 166.582 8.8856 165.227 9.41137C164.171 9.79741 163.252 10.4852 162.585 11.389C161.997 12.2146 161.686 13.2049 161.695 14.2181C161.718 15.029 161.952 15.82 162.373 16.5134C162.795 17.2068 163.39 17.7788 164.099 18.1733C166.423 19.5702 168.928 20.6418 171.544 21.358C176.203 22.5579 180.535 24.7844 184.221 27.8741C185.576 29.1519 186.645 30.7021 187.357 32.4227C188.068 34.1432 188.406 35.9949 188.349 37.8556C188.418 40.5648 187.628 43.2265 186.092 45.4603C184.467 47.6638 182.235 49.3471 179.668 50.3044C176.546 51.4863 173.227 52.0601 169.889 51.995C166.443 52.0197 163.024 51.3921 159.812 50.1453C156.783 49.0044 154.129 47.0508 152.14 44.4995C150.117 41.8164 149.069 38.5245 149.171 35.1668H160.137C160.03 36.3355 160.202 37.5128 160.639 38.6021C161.076 39.6915 161.765 40.6618 162.651 41.4333C164.78 42.854 167.321 43.5317 169.876 43.361C171.864 43.4977 173.84 42.9722 175.497 41.8669C176.107 41.4075 176.598 40.8086 176.929 40.1204C177.26 39.4322 177.421 38.6748 177.398 37.9117C177.435 36.8533 177.168 35.8065 176.627 34.8954C175.908 33.9003 174.947 33.1039 173.836 32.581C171.893 31.6073 169.869 30.8037 167.787 30.1792C164.722 29.2272 161.753 27.9897 158.919 26.4829V26.4891Z" fill="#333333"/>
<path d="M247.216 9.07428H231.339V52H220.15V9.07428H204.559V0H247.277L247.216 9.07428Z" fill="#333333"/>
<path d="M264.977 52V0H276.175V52H264.977Z" fill="#333333"/>
<path d="M326.141 41.6789H307.691L304.293 52H292.343L311.666 0H322.091L341.508 52H329.516L326.141 41.6789ZM323.089 32.6046L316.836 13.6451L310.652 32.6046H323.089Z" fill="#333333"/>
<path d="M380.719 20.0937L368.628 0H357.422V52H368.628V18.4689L374.081 27.4902L380.719 20.0937Z" fill="#5B4A42"/>
<path d="M388.823 0V33.5311L383.719 25.0386L377.058 32.4447L388.836 51.9936H400V0H388.823Z" fill="#5B4A42"/>
</svg>
