<svg width="94" height="52" viewBox="0 0 94 52" fill="none" xmlns="http://www.w3.org/2000/svg">
<path d="M40.143 43.536C38.3685 46.234 35.8391 48.395 32.8456 49.7704C29.4125 51.3177 25.6537 52.0784 21.864 51.9929C17.7648 52.0963 13.7204 51.0676 10.209 49.0285C6.86502 46.9957 4.23333 44.0415 2.65593 40.5497C0.815436 36.4553 -0.0877943 32.0272 0.00765261 27.5667V24.4744C-0.0945155 20.0113 0.827428 15.5814 2.70773 11.5007C4.35408 7.99969 7.02505 5.03692 10.3936 2.9752C13.8626 0.947757 17.8621 -0.0809177 21.9191 0.010772C25.7388 -0.102153 29.5304 0.674177 32.9719 2.27384C35.94 3.69363 38.4306 5.89277 40.1559 8.61732C41.9119 11.4666 42.9652 14.6659 43.2348 17.9689H31.9327C31.9373 15.4669 31.013 13.0457 29.3265 11.1422C28.3146 10.3157 27.1419 9.69159 25.8767 9.30624C24.6116 8.9209 23.2794 8.78207 21.9579 8.89786C20.4252 8.81569 18.8966 9.11703 17.5208 9.77254C16.1449 10.4281 14.9688 11.4154 14.107 12.6385C12.0798 16.2376 11.1453 20.3133 11.4101 24.3996V27.5604C11.3229 30.5173 11.6684 33.4712 12.4364 36.3353C12.9469 38.3206 14.1083 40.0947 15.7484 41.3945C17.5058 42.5745 19.6206 43.1589 21.7604 43.056C24.372 43.2509 26.9636 42.4882 29.0157 40.9207C30.7657 39.1445 31.7393 36.7885 31.7352 34.3403H43.0244C42.879 37.5909 41.887 40.7542 40.1397 43.5391L40.143 43.536Z" fill="#333333"/>
<path d="M74.5105 20.0737L62.4303 0H51.2349V51.9968H62.4303V18.4583L67.8791 27.4904L74.5105 20.0737Z" fill="#5B4A42"/>
<path d="M82.6066 0V33.5353L77.4976 25.0417L70.8438 32.4487L82.6098 52H93.7637V0H82.6066Z" fill="#5B4A42"/>
</svg>
